<svg width="400" height="90" xmlns="http://www.w3.org/2000/svg">

 <g>
  <title>background</title>
  <rect fill="none" id="canvas_background" height="92" width="402" y="-1" x="-1"/>
 </g>
 <g>
  <title>Layer 1</title>
  <g stroke="null" fill="#fa5253" id="surface1">
   <path stroke="null" id="svg_1" fill="#fa5253" d="m51.735295,3.221248c-11.21717,0 -20.390035,9.561317 -20.390035,21.253511c0,3.569917 0.836297,6.890778 2.336358,9.851888c-6.199318,-1.5774 -13.752637,-2.767384 -22.726393,-2.767384l-4.354122,0l11.894187,49.591526l2.654952,0c11.575593,0 18.690865,1.729611 22.832591,3.320861c2.07088,0.802533 3.385052,1.59125 4.141726,2.103212c0.756674,0.511962 0.849585,0.553477 0.849585,0.553477l0.955783,1.106954l3.610735,0l0.955783,-1.106954c0,0 0.092911,-0.041515 0.849585,-0.553477c0.756674,-0.511962 2.07088,-1.300679 4.141726,-2.103212c4.141726,-1.59125 11.256998,-3.320861 22.832591,-3.320861l2.654952,0l11.894187,-49.591526l-4.354122,0c-8.933928,0 -16.473993,1.120804 -22.620195,2.656689c1.460232,-2.919595 2.23016,-6.226606 2.23016,-9.741193c0,-11.692194 -9.172865,-21.253511 -20.390035,-21.253511zm0,7.084504c7.553353,0 13.593357,6.295786 13.593357,14.169007c0,7.873222 -6.040004,14.169007 -13.593357,14.169007c-7.553353,0 -13.593357,-6.295786 -13.593357,-14.169007c0,-7.873222 6.040004,-14.169007 13.593357,-14.169007zm-36.31975,28.780796c10.566728,0.539627 19.195315,2.449148 24.850355,4.649206c4.553231,1.771126 6.796678,3.140986 8.071055,3.985033l0,30.994704c-0.610648,-0.290571 -1.168179,-0.594992 -1.911566,-0.885563c-4.593059,-1.771126 -12.133124,-3.265496 -22.620195,-3.542252l-8.38965,-35.201128zm72.639499,0l-8.38965,35.201128c-10.487071,0.276756 -18.027136,1.771126 -22.620195,3.542252c-0.743387,0.290571 -1.300918,0.594992 -1.911566,0.885563l0,-30.994704c1.274377,-0.857898 3.504537,-2.241572 7.964857,-3.985033c5.615212,-2.200057 14.257086,-4.109579 24.956553,-4.649206z"/>
  </g>
  <text stroke="#000" transform="matrix(1,0,0,1.017313003540039,0,-0.25780144333839417) " font-weight="bold" xml:space="preserve" text-anchor="start" font-family="'Courier New', Courier, monospace" font-size="70" id="svg_2" y="71.176645" x="110.882353" stroke-width="0" fill="#ff5656">学生在线</text>
 </g>
</svg>