<?xml version="1.0" standalone="no"?><!DOCTYPE svg PUBLIC "-//W3C//DTD SVG 1.1//EN" "http://www.w3.org/Graphics/SVG/1.1/DTD/svg11.dtd"><svg t="1560333468088" class="icon" style="" viewBox="0 0 1024 1024" version="1.1" xmlns="http://www.w3.org/2000/svg" p-id="2865" xmlns:xlink="http://www.w3.org/1999/xlink" width="128" height="128"><defs><style type="text/css"></style></defs><path d="M572.798923 511.99992c-11.199816 0-20.799659 9.599843-20.799659 20.799659s9.599843 20.799659 20.799659 20.799659c12.79979 1.599974 23.999606-7.999869 25.59958-20.799659-1.599974-12.79979-12.79979-22.399633-25.59958-20.799659zM687.997033 513.599894c-11.199816 0-20.799659 7.999869-20.799659 19.199685s7.999869 20.799659 19.199685 20.799659c12.79979 1.599974 23.999606-7.999869 25.59958-20.799659 0-12.79979-11.199816-20.799659-23.999606-19.199685zM505.600025 416.001495h4.799921c14.399764-1.599974 23.999606-12.79979 23.999607-27.199554-1.599974-14.399764-12.79979-23.999606-27.199554-23.999606-15.999738-1.599974-28.799528 9.599843-31.999475 25.59958 0 15.999738 14.399764 27.199554 30.399501 25.59958zM358.40244 364.802335c-15.999738-1.599974-30.399501 9.599843-31.999475 25.59958 1.599974 15.999738 15.999738 27.199554 31.999475 25.59958h4.799921c14.399764-1.599974 23.999606-12.79979 23.999607-27.199554-3.199948-14.399764-14.399764-25.59958-28.799528-23.999606z" fill="#51C332" p-id="2866"></path><path d="M515.199868 0.00832C232.004514-1.591654 1.608294 225.604619 0.00832 508.799973-1.591654 791.995326 225.604619 1022.391546 508.799973 1023.99152c283.195354 1.599974 513.591574-225.596299 515.191547-508.791652C1025.591494 232.004514 798.395221 1.608294 515.199868 0.00832z m-89.59853 622.389789c-23.999606-1.599974-49.599186-4.799921-73.598793-11.199816l-73.598792 35.199422 20.799658-60.799002c-51.19916-35.199423-83.198635-81.598661-83.198635-135.997769 0-95.998425 94.398451-171.197191 209.596562-169.597218 102.39832 0 191.99685 60.799003 211.196535 142.397664-6.399895 0-12.79979-1.599974-20.799659-1.599974-99.198373 0-179.19706 70.398845-179.19706 159.997375 0 14.399764 1.599974 28.799528 6.399895 41.599318h-17.599711z m307.19496 71.998819l15.999737 51.19916-57.599055-30.399502c-20.799659 6.399895-41.599318 9.599843-62.398976 9.599843-99.198373 0-177.597086-67.198898-177.597086-147.197585 0-79.998688 79.998688-145.597611 179.19706-145.597612 94.398451 0 177.597086 67.198898 177.597086 147.197586 0 44.799265-31.999475 86.398583-75.198766 115.19811z" fill="#51C332" p-id="2867"></path></svg>